<svg width="16" height="15" viewBox="0 0 67 48" fill="none" xmlns="http://www.w3.org/2000/svg">
    <rect width="67" height="48" rx="24" fill="#FAE4D6"/>
    <path d="M25.9818 33.8456C25.9818 34.1283 25.9151 34.395 25.7818 34.6456C25.6484 34.8963 25.4351 35.1016 25.1418 35.2616C24.8484 35.4163 24.4724 35.4936 24.0138 35.4936H23.0058V37.7496H22.0938V32.1896H24.0138C24.4404 32.1896 24.8004 32.2643 25.0938 32.4136C25.3924 32.5576 25.6138 32.755 25.7578 33.0056C25.9071 33.2563 25.9818 33.5363 25.9818 33.8456ZM24.0138 34.7496C24.3604 34.7496 24.6191 34.6723 24.7898 34.5176C24.9604 34.3576 25.0458 34.1336 25.0458 33.8456C25.0458 33.2376 24.7018 32.9336 24.0138 32.9336H23.0058V34.7496H24.0138ZM27.7636 33.9816C27.8969 33.7576 28.0729 33.5843 28.2916 33.4616C28.5156 33.3336 28.7796 33.2696 29.0836 33.2696V34.2136H28.8516C28.4942 34.2136 28.2222 34.3043 28.0356 34.4856C27.8542 34.667 27.7636 34.9816 27.7636 35.4296V37.7496H26.8516V33.3416H27.7636V33.9816ZM31.8339 37.8216C31.4179 37.8216 31.0419 37.7283 30.7059 37.5416C30.3699 37.3496 30.1059 37.083 29.9139 36.7416C29.7219 36.395 29.6259 35.995 29.6259 35.5416C29.6259 35.0936 29.7246 34.6963 29.9219 34.3496C30.1192 34.003 30.3886 33.7363 30.7299 33.5496C31.0712 33.363 31.4526 33.2696 31.8739 33.2696C32.2952 33.2696 32.6766 33.363 33.0179 33.5496C33.3592 33.7363 33.6286 34.003 33.8259 34.3496C34.0232 34.6963 34.1219 35.0936 34.1219 35.5416C34.1219 35.9896 34.0206 36.387 33.8179 36.7336C33.6152 37.0803 33.3379 37.3496 32.9859 37.5416C32.6392 37.7283 32.2552 37.8216 31.8339 37.8216ZM31.8339 37.0296C32.0686 37.0296 32.2872 36.9736 32.4899 36.8616C32.6979 36.7496 32.8659 36.5816 32.9939 36.3576C33.1219 36.1336 33.1859 35.8616 33.1859 35.5416C33.1859 35.2216 33.1246 34.9523 33.0019 34.7336C32.8792 34.5096 32.7166 34.3416 32.5139 34.2296C32.3112 34.1176 32.0926 34.0616 31.8579 34.0616C31.6232 34.0616 31.4046 34.1176 31.2019 34.2296C31.0046 34.3416 30.8472 34.5096 30.7299 34.7336C30.6126 34.9523 30.5539 35.2216 30.5539 35.5416C30.5539 36.0163 30.6739 36.3843 30.9139 36.6456C31.1592 36.9016 31.4659 37.0296 31.8339 37.0296ZM36.8714 34.0856H36.0554V37.7496H35.1354V34.0856H34.6154V33.3416H35.1354V33.0296C35.1354 32.523 35.2688 32.155 35.5354 31.9256C35.8074 31.691 36.2314 31.5736 36.8074 31.5736V32.3336C36.5301 32.3336 36.3354 32.387 36.2234 32.4936C36.1114 32.595 36.0554 32.7736 36.0554 33.0296V33.3416H36.8714V34.0856ZM38.1437 32.7576C37.9784 32.7576 37.8397 32.7016 37.7277 32.5896C37.6157 32.4776 37.5597 32.339 37.5597 32.1736C37.5597 32.0083 37.6157 31.8696 37.7277 31.7576C37.8397 31.6456 37.9784 31.5896 38.1437 31.5896C38.3037 31.5896 38.4397 31.6456 38.5517 31.7576C38.6637 31.8696 38.7197 32.0083 38.7197 32.1736C38.7197 32.339 38.6637 32.4776 38.5517 32.5896C38.4397 32.7016 38.3037 32.7576 38.1437 32.7576ZM38.5917 33.3416V37.7496H37.6797V33.3416H38.5917ZM40.7011 31.8296V37.7496H39.7891V31.8296H40.7011ZM45.9384 35.4376C45.9384 35.603 45.9278 35.7523 45.9064 35.8856H42.5384C42.5651 36.2376 42.6958 36.5203 42.9304 36.7336C43.1651 36.947 43.4531 37.0536 43.7944 37.0536C44.2851 37.0536 44.6318 36.8483 44.8344 36.4376H45.8184C45.6851 36.843 45.4424 37.1763 45.0904 37.4376C44.7438 37.6936 44.3118 37.8216 43.7944 37.8216C43.3731 37.8216 42.9944 37.7283 42.6584 37.5416C42.3278 37.3496 42.0664 37.083 41.8744 36.7416C41.6878 36.395 41.5944 35.995 41.5944 35.5416C41.5944 35.0883 41.6851 34.691 41.8664 34.3496C42.0531 34.003 42.3118 33.7363 42.6424 33.5496C42.9784 33.363 43.3624 33.2696 43.7944 33.2696C44.2104 33.2696 44.5811 33.3603 44.9064 33.5416C45.2318 33.723 45.4851 33.979 45.6664 34.3096C45.8478 34.635 45.9384 35.011 45.9384 35.4376ZM44.9864 35.1496C44.9811 34.8136 44.8611 34.5443 44.6264 34.3416C44.3918 34.139 44.1011 34.0376 43.7544 34.0376C43.4398 34.0376 43.1704 34.139 42.9464 34.3416C42.7224 34.539 42.5891 34.8083 42.5464 35.1496H44.9864Z" fill="#F65123"/>
    <path fill-rule="evenodd" clip-rule="evenodd" d="M33.5572 15.5C31.7989 15.5 30.3689 14.1545 30.3689 12.5C30.3689 10.8455 31.7989 9.49999 33.5572 9.49999C35.3156 9.49999 36.7455 10.8455 36.7455 12.5C36.7455 14.1545 35.3156 15.5 33.5572 15.5ZM36.5527 16.0047C37.8176 15.047 38.5549 13.4982 38.2839 11.8024C37.9691 9.8352 36.2298 8.26098 34.1303 8.03148C31.233 7.71423 28.7748 9.83674 28.7748 12.5C28.7748 13.9175 29.473 15.1805 30.5618 16.0047C27.8869 16.9505 25.934 19.1712 25.6279 22.1682C25.5833 22.6115 25.9508 23 26.4242 23C26.8299 23 27.1759 22.712 27.2117 22.3317C27.5314 18.9845 30.255 17 33.5572 17C36.8595 17 39.5831 18.9845 39.9028 22.3317C39.9386 22.712 40.2846 23 40.6903 23C41.1637 23 41.5312 22.6115 41.4865 22.1682C41.1805 19.1712 39.2276 16.9505 36.5527 16.0047Z" fill="#F65123"/>
</svg>
