<svg width="301" height="160" viewBox="0 0 301 160" fill="none" xmlns="http://www.w3.org/2000/svg">
    <rect x="1" y="1" width="299" height="158" rx="16" fill="#ECEFF2" stroke="#DBDFE2"/>
    <path d="M22.016 23.524V26.32H25.064V27.22H22.016V30.1H25.424V31H20.924V22.624H25.424V23.524H22.016ZM30.5083 31L28.9483 28.552L27.4483 31H26.3083L28.4323 27.736L26.3083 24.424H27.5443L29.1043 26.86L30.5923 24.424H31.7323L29.6203 27.676L31.7443 31H30.5083ZM32.4105 27.7C32.4105 27.02 32.5465 26.428 32.8185 25.924C33.0905 25.412 33.4665 25.016 33.9465 24.736C34.4345 24.456 34.9905 24.316 35.6145 24.316C36.4225 24.316 37.0865 24.512 37.6065 24.904C38.1345 25.296 38.4825 25.84 38.6505 26.536H37.4745C37.3625 26.136 37.1425 25.82 36.8145 25.588C36.4945 25.356 36.0945 25.24 35.6145 25.24C34.9905 25.24 34.4865 25.456 34.1025 25.888C33.7185 26.312 33.5265 26.916 33.5265 27.7C33.5265 28.492 33.7185 29.104 34.1025 29.536C34.4865 29.968 34.9905 30.184 35.6145 30.184C36.0945 30.184 36.4945 30.072 36.8145 29.848C37.1345 29.624 37.3545 29.304 37.4745 28.888H38.6505C38.4745 29.56 38.1225 30.1 37.5945 30.508C37.0665 30.908 36.4065 31.108 35.6145 31.108C34.9905 31.108 34.4345 30.968 33.9465 30.688C33.4665 30.408 33.0905 30.012 32.8185 29.5C32.5465 28.988 32.4105 28.388 32.4105 27.7ZM46.1076 27.46C46.1076 27.668 46.0956 27.888 46.0716 28.12H40.8156C40.8556 28.768 41.0756 29.276 41.4756 29.644C41.8836 30.004 42.3756 30.184 42.9516 30.184C43.4236 30.184 43.8156 30.076 44.1276 29.86C44.4476 29.636 44.6716 29.34 44.7996 28.972H45.9756C45.7996 29.604 45.4476 30.12 44.9196 30.52C44.3916 30.912 43.7356 31.108 42.9516 31.108C42.3276 31.108 41.7676 30.968 41.2716 30.688C40.7836 30.408 40.3996 30.012 40.1196 29.5C39.8396 28.98 39.6996 28.38 39.6996 27.7C39.6996 27.02 39.8356 26.424 40.1076 25.912C40.3796 25.4 40.7596 25.008 41.2476 24.736C41.7436 24.456 42.3116 24.316 42.9516 24.316C43.5756 24.316 44.1276 24.452 44.6076 24.724C45.0876 24.996 45.4556 25.372 45.7116 25.852C45.9756 26.324 46.1076 26.86 46.1076 27.46ZM44.9796 27.232C44.9796 26.816 44.8876 26.46 44.7036 26.164C44.5196 25.86 44.2676 25.632 43.9476 25.48C43.6356 25.32 43.2876 25.24 42.9036 25.24C42.3516 25.24 41.8796 25.416 41.4876 25.768C41.1036 26.12 40.8836 26.608 40.8276 27.232H44.9796ZM48.641 22.12V31H47.549V22.12H48.641ZM51.5941 22.12V31H50.5021V22.12H51.5941ZM59.4553 27.46C59.4553 27.668 59.4433 27.888 59.4193 28.12H54.1633C54.2033 28.768 54.4233 29.276 54.8233 29.644C55.2313 30.004 55.7233 30.184 56.2993 30.184C56.7713 30.184 57.1633 30.076 57.4753 29.86C57.7953 29.636 58.0193 29.34 58.1473 28.972H59.3233C59.1473 29.604 58.7953 30.12 58.2673 30.52C57.7393 30.912 57.0833 31.108 56.2993 31.108C55.6753 31.108 55.1153 30.968 54.6193 30.688C54.1313 30.408 53.7473 30.012 53.4673 29.5C53.1873 28.98 53.0473 28.38 53.0473 27.7C53.0473 27.02 53.1833 26.424 53.4553 25.912C53.7273 25.4 54.1073 25.008 54.5953 24.736C55.0913 24.456 55.6593 24.316 56.2993 24.316C56.9233 24.316 57.4753 24.452 57.9553 24.724C58.4353 24.996 58.8033 25.372 59.0593 25.852C59.3233 26.324 59.4553 26.86 59.4553 27.46ZM58.3273 27.232C58.3273 26.816 58.2353 26.46 58.0513 26.164C57.8673 25.86 57.6153 25.632 57.2953 25.48C56.9833 25.32 56.6353 25.24 56.2513 25.24C55.6993 25.24 55.2273 25.416 54.8353 25.768C54.4513 26.12 54.2313 26.608 54.1753 27.232H58.3273ZM64.1007 24.304C64.9007 24.304 65.5487 24.548 66.0447 25.036C66.5407 25.516 66.7887 26.212 66.7887 27.124V31H65.7087V27.28C65.7087 26.624 65.5447 26.124 65.2167 25.78C64.8887 25.428 64.4407 25.252 63.8727 25.252C63.2967 25.252 62.8367 25.432 62.4927 25.792C62.1567 26.152 61.9887 26.676 61.9887 27.364V31H60.8967V24.424H61.9887V25.36C62.2047 25.024 62.4967 24.764 62.8647 24.58C63.2407 24.396 63.6527 24.304 64.1007 24.304ZM69.9044 25.324V29.2C69.9044 29.52 69.9724 29.748 70.1084 29.884C70.2444 30.012 70.4804 30.076 70.8164 30.076H71.6204V31H70.6364C70.0284 31 69.5724 30.86 69.2684 30.58C68.9644 30.3 68.8124 29.84 68.8124 29.2V25.324H67.9604V24.424H68.8124V22.768H69.9044V24.424H71.6204V25.324H69.9044Z" fill="#D6DBE0"/>
    <path d="M26.26 80.06C26.028 79.572 25.692 79.196 25.252 78.932C24.812 78.66 24.3 78.524 23.716 78.524C23.132 78.524 22.604 78.66 22.132 78.932C21.668 79.196 21.3 79.58 21.028 80.084C20.764 80.58 20.632 81.156 20.632 81.812C20.632 82.468 20.764 83.044 21.028 83.54C21.3 84.036 21.668 84.42 22.132 84.692C22.604 84.956 23.132 85.088 23.716 85.088C24.532 85.088 25.204 84.844 25.732 84.356C26.26 83.868 26.568 83.208 26.656 82.376H23.32V81.488H27.82V82.328C27.756 83.016 27.54 83.648 27.172 84.224C26.804 84.792 26.32 85.244 25.72 85.58C25.12 85.908 24.452 86.072 23.716 86.072C22.94 86.072 22.232 85.892 21.592 85.532C20.952 85.164 20.444 84.656 20.068 84.008C19.7 83.36 19.516 82.628 19.516 81.812C19.516 80.996 19.7 80.264 20.068 79.616C20.444 78.96 20.952 78.452 21.592 78.092C22.232 77.724 22.94 77.54 23.716 77.54C24.604 77.54 25.388 77.76 26.068 78.2C26.756 78.64 27.256 79.26 27.568 80.06H26.26ZM32.1318 86.108C31.5158 86.108 30.9558 85.968 30.4518 85.688C29.9558 85.408 29.5638 85.012 29.2758 84.5C28.9958 83.98 28.8558 83.38 28.8558 82.7C28.8558 82.028 28.9998 81.436 29.2878 80.924C29.5838 80.404 29.9838 80.008 30.4878 79.736C30.9918 79.456 31.5558 79.316 32.1798 79.316C32.8038 79.316 33.3678 79.456 33.8718 79.736C34.3758 80.008 34.7718 80.4 35.0598 80.912C35.3558 81.424 35.5038 82.02 35.5038 82.7C35.5038 83.38 35.3518 83.98 35.0478 84.5C34.7518 85.012 34.3478 85.408 33.8358 85.688C33.3238 85.968 32.7558 86.108 32.1318 86.108ZM32.1318 85.148C32.5238 85.148 32.8918 85.056 33.2358 84.872C33.5798 84.688 33.8558 84.412 34.0638 84.044C34.2798 83.676 34.3878 83.228 34.3878 82.7C34.3878 82.172 34.2838 81.724 34.0758 81.356C33.8678 80.988 33.5958 80.716 33.2598 80.54C32.9238 80.356 32.5598 80.264 32.1678 80.264C31.7678 80.264 31.3998 80.356 31.0638 80.54C30.7358 80.716 30.4718 80.988 30.2718 81.356C30.0718 81.724 29.9718 82.172 29.9718 82.7C29.9718 83.236 30.0678 83.688 30.2598 84.056C30.4598 84.424 30.7238 84.7 31.0518 84.884C31.3798 85.06 31.7398 85.148 32.1318 85.148ZM39.8076 86.108C39.1916 86.108 38.6316 85.968 38.1276 85.688C37.6316 85.408 37.2396 85.012 36.9516 84.5C36.6716 83.98 36.5316 83.38 36.5316 82.7C36.5316 82.028 36.6756 81.436 36.9636 80.924C37.2596 80.404 37.6596 80.008 38.1636 79.736C38.6676 79.456 39.2316 79.316 39.8556 79.316C40.4796 79.316 41.0436 79.456 41.5476 79.736C42.0516 80.008 42.4476 80.4 42.7356 80.912C43.0316 81.424 43.1796 82.02 43.1796 82.7C43.1796 83.38 43.0276 83.98 42.7236 84.5C42.4276 85.012 42.0236 85.408 41.5116 85.688C40.9996 85.968 40.4316 86.108 39.8076 86.108ZM39.8076 85.148C40.1996 85.148 40.5676 85.056 40.9116 84.872C41.2556 84.688 41.5316 84.412 41.7396 84.044C41.9556 83.676 42.0636 83.228 42.0636 82.7C42.0636 82.172 41.9596 81.724 41.7516 81.356C41.5436 80.988 41.2716 80.716 40.9356 80.54C40.5996 80.356 40.2356 80.264 39.8436 80.264C39.4436 80.264 39.0756 80.356 38.7396 80.54C38.4116 80.716 38.1476 80.988 37.9476 81.356C37.7476 81.724 37.6476 82.172 37.6476 82.7C37.6476 83.236 37.7436 83.688 37.9356 84.056C38.1356 84.424 38.3996 84.7 38.7276 84.884C39.0556 85.06 39.4156 85.148 39.8076 85.148ZM44.2074 82.688C44.2074 82.016 44.3434 81.428 44.6154 80.924C44.8874 80.412 45.2594 80.016 45.7314 79.736C46.2114 79.456 46.7474 79.316 47.3394 79.316C47.8514 79.316 48.3274 79.436 48.7674 79.676C49.2074 79.908 49.5434 80.216 49.7754 80.6V77.12H50.8794V86H49.7754V84.764C49.5594 85.156 49.2394 85.48 48.8154 85.736C48.3914 85.984 47.8954 86.108 47.3274 86.108C46.7434 86.108 46.2114 85.964 45.7314 85.676C45.2594 85.388 44.8874 84.984 44.6154 84.464C44.3434 83.944 44.2074 83.352 44.2074 82.688ZM49.7754 82.7C49.7754 82.204 49.6754 81.772 49.4754 81.404C49.2754 81.036 49.0034 80.756 48.6594 80.564C48.3234 80.364 47.9514 80.264 47.5434 80.264C47.1354 80.264 46.7634 80.36 46.4274 80.552C46.0914 80.744 45.8234 81.024 45.6234 81.392C45.4234 81.76 45.3234 82.192 45.3234 82.688C45.3234 83.192 45.4234 83.632 45.6234 84.008C45.8234 84.376 46.0914 84.66 46.4274 84.86C46.7634 85.052 47.1354 85.148 47.5434 85.148C47.9514 85.148 48.3234 85.052 48.6594 84.86C49.0034 84.66 49.2754 84.376 49.4754 84.008C49.6754 83.632 49.7754 83.196 49.7754 82.7Z" fill="#D6DBE0"/>
    <path d="M25.072 132.636V133.524H22.792V141H21.7V133.524H19.408V132.636H25.072ZM32.4162 137.46C32.4162 137.668 32.4042 137.888 32.3802 138.12H27.1242C27.1642 138.768 27.3842 139.276 27.7842 139.644C28.1922 140.004 28.6842 140.184 29.2602 140.184C29.7322 140.184 30.1242 140.076 30.4362 139.86C30.7562 139.636 30.9802 139.34 31.1082 138.972H32.2842C32.1082 139.604 31.7562 140.12 31.2282 140.52C30.7002 140.912 30.0442 141.108 29.2602 141.108C28.6362 141.108 28.0762 140.968 27.5802 140.688C27.0922 140.408 26.7082 140.012 26.4282 139.5C26.1482 138.98 26.0082 138.38 26.0082 137.7C26.0082 137.02 26.1442 136.424 26.4162 135.912C26.6882 135.4 27.0682 135.008 27.5562 134.736C28.0522 134.456 28.6202 134.316 29.2602 134.316C29.8842 134.316 30.4362 134.452 30.9162 134.724C31.3962 134.996 31.7642 135.372 32.0202 135.852C32.2842 136.324 32.4162 136.86 32.4162 137.46ZM31.2882 137.232C31.2882 136.816 31.1962 136.46 31.0122 136.164C30.8282 135.86 30.5762 135.632 30.2562 135.48C29.9442 135.32 29.5962 135.24 29.2122 135.24C28.6602 135.24 28.1882 135.416 27.7962 135.768C27.4122 136.12 27.1922 136.608 27.1362 137.232H31.2882ZM34.9496 135.492C35.1416 135.116 35.4136 134.824 35.7656 134.616C36.1256 134.408 36.5616 134.304 37.0736 134.304V135.432H36.7856C35.5616 135.432 34.9496 136.096 34.9496 137.424V141H33.8576V134.424H34.9496V135.492ZM39.4262 135.492C39.6182 135.116 39.8902 134.824 40.2422 134.616C40.6022 134.408 41.0382 134.304 41.5502 134.304V135.432H41.2622C40.0382 135.432 39.4262 136.096 39.4262 137.424V141H38.3342V134.424H39.4262V135.492ZM43.3747 133.356C43.1667 133.356 42.9907 133.284 42.8467 133.14C42.7027 132.996 42.6307 132.82 42.6307 132.612C42.6307 132.404 42.7027 132.228 42.8467 132.084C42.9907 131.94 43.1667 131.868 43.3747 131.868C43.5747 131.868 43.7427 131.94 43.8787 132.084C44.0227 132.228 44.0947 132.404 44.0947 132.612C44.0947 132.82 44.0227 132.996 43.8787 133.14C43.7427 133.284 43.5747 133.356 43.3747 133.356ZM43.9027 134.424V141H42.8107V134.424H43.9027ZM46.8558 135.648C47.0798 135.256 47.4078 134.936 47.8398 134.688C48.2718 134.44 48.7638 134.316 49.3158 134.316C49.9078 134.316 50.4398 134.456 50.9118 134.736C51.3838 135.016 51.7558 135.412 52.0278 135.924C52.2998 136.428 52.4358 137.016 52.4358 137.688C52.4358 138.352 52.2998 138.944 52.0278 139.464C51.7558 139.984 51.3798 140.388 50.8998 140.676C50.4278 140.964 49.8998 141.108 49.3158 141.108C48.7478 141.108 48.2478 140.984 47.8158 140.736C47.3918 140.488 47.0718 140.172 46.8558 139.788V141H45.7638V132.12H46.8558V135.648ZM51.3198 137.688C51.3198 137.192 51.2198 136.76 51.0198 136.392C50.8198 136.024 50.5478 135.744 50.2038 135.552C49.8678 135.36 49.4958 135.264 49.0878 135.264C48.6878 135.264 48.3158 135.364 47.9718 135.564C47.6358 135.756 47.3638 136.04 47.1558 136.416C46.9558 136.784 46.8558 137.212 46.8558 137.7C46.8558 138.196 46.9558 138.632 47.1558 139.008C47.3638 139.376 47.6358 139.66 47.9718 139.86C48.3158 140.052 48.6878 140.148 49.0878 140.148C49.4958 140.148 49.8678 140.052 50.2038 139.86C50.5478 139.66 50.8198 139.376 51.0198 139.008C51.2198 138.632 51.3198 138.192 51.3198 137.688ZM54.9652 132.12V141H53.8732V132.12H54.9652ZM62.8263 137.46C62.8263 137.668 62.8143 137.888 62.7903 138.12H57.5343C57.5743 138.768 57.7943 139.276 58.1943 139.644C58.6023 140.004 59.0943 140.184 59.6703 140.184C60.1423 140.184 60.5343 140.076 60.8463 139.86C61.1663 139.636 61.3903 139.34 61.5183 138.972H62.6943C62.5183 139.604 62.1663 140.12 61.6383 140.52C61.1103 140.912 60.4543 141.108 59.6703 141.108C59.0463 141.108 58.4863 140.968 57.9903 140.688C57.5023 140.408 57.1183 140.012 56.8383 139.5C56.5583 138.98 56.4183 138.38 56.4183 137.7C56.4183 137.02 56.5543 136.424 56.8263 135.912C57.0983 135.4 57.4783 135.008 57.9663 134.736C58.4623 134.456 59.0303 134.316 59.6703 134.316C60.2943 134.316 60.8463 134.452 61.3263 134.724C61.8063 134.996 62.1743 135.372 62.4303 135.852C62.6943 136.324 62.8263 136.86 62.8263 137.46ZM61.6983 137.232C61.6983 136.816 61.6063 136.46 61.4223 136.164C61.2383 135.86 60.9863 135.632 60.6663 135.48C60.3543 135.32 60.0063 135.24 59.6223 135.24C59.0703 135.24 58.5983 135.416 58.2063 135.768C57.8223 136.12 57.6023 136.608 57.5463 137.232H61.6983Z" fill="#D6DBE0"/>
    <line y1="44.2" x2="299" y2="44.2" stroke="#3C536C" stroke-width="1.6"/>
    <circle cx="149.5" cy="44.5" r="8" fill="#F65123" stroke="#ECEFF2" stroke-width="5"/>
    <rect x="266" y="1" width="34" height="158" rx="16" fill="url(#paint0_linear_0_1)"/>
    <rect x="266" y="41" width="34" height="7" rx="3.5" fill="#3C536C"/>
    <defs>
        <linearGradient id="paint0_linear_0_1" x1="283" y1="1" x2="283" y2="159" gradientUnits="userSpaceOnUse">
            <stop stop-color="#1AC611"/>
            <stop offset="0.5" stop-color="#E4921F"/>
            <stop offset="1" stop-color="#FA0E0E"/>
        </linearGradient>
    </defs>
</svg>
