<svg width="16" height="15" viewBox="0 0 31 31" fill="none" xmlns="http://www.w3.org/2000/svg">
    <path d="M6.65958 28.056C6.28625 28.056 5.95025 27.992 5.65158 27.864C5.35292 27.7307 5.11825 27.544 4.94758 27.304C4.77692 27.064 4.69158 26.784 4.69158 26.464H5.66758C5.68892 26.704 5.78225 26.9013 5.94758 27.056C6.11825 27.2107 6.35558 27.288 6.65958 27.288C6.97425 27.288 7.21958 27.2133 7.39558 27.064C7.57158 26.9093 7.65958 26.712 7.65958 26.472C7.65958 26.2853 7.60358 26.1333 7.49158 26.016C7.38492 25.8987 7.24892 25.808 7.08358 25.744C6.92358 25.68 6.69958 25.6107 6.41158 25.536C6.04892 25.44 5.75292 25.344 5.52358 25.248C5.29958 25.1467 5.10758 24.992 4.94758 24.784C4.78758 24.576 4.70758 24.2987 4.70758 23.952C4.70758 23.632 4.78758 23.352 4.94758 23.112C5.10758 22.872 5.33158 22.688 5.61958 22.56C5.90758 22.432 6.24092 22.368 6.61958 22.368C7.15825 22.368 7.59825 22.504 7.93958 22.776C8.28625 23.0427 8.47825 23.4107 8.51558 23.88H7.50758C7.49158 23.6773 7.39558 23.504 7.21958 23.36C7.04358 23.216 6.81158 23.144 6.52358 23.144C6.26225 23.144 6.04892 23.2107 5.88358 23.344C5.71825 23.4773 5.63558 23.6693 5.63558 23.92C5.63558 24.0907 5.68625 24.232 5.78758 24.344C5.89425 24.4507 6.02758 24.536 6.18758 24.6C6.34758 24.664 6.56625 24.7333 6.84358 24.808C7.21158 24.9093 7.51025 25.0107 7.73958 25.112C7.97425 25.2133 8.17158 25.3707 8.33158 25.584C8.49692 25.792 8.57958 26.072 8.57958 26.424C8.57958 26.7067 8.50225 26.9733 8.34758 27.224C8.19825 27.4747 7.97692 27.6773 7.68358 27.832C7.39558 27.9813 7.05425 28.056 6.65958 28.056ZM10.5677 22.08V28H9.65571V22.08H10.5677ZM15.8051 25.688C15.8051 25.8533 15.7944 26.0027 15.7731 26.136H12.4051C12.4317 26.488 12.5624 26.7707 12.7971 26.984C13.0317 27.1973 13.3197 27.304 13.6611 27.304C14.1517 27.304 14.4984 27.0987 14.7011 26.688H15.6851C15.5517 27.0933 15.3091 27.4267 14.9571 27.688C14.6104 27.944 14.1784 28.072 13.6611 28.072C13.2397 28.072 12.8611 27.9787 12.5251 27.792C12.1944 27.6 11.9331 27.3333 11.7411 26.992C11.5544 26.6453 11.4611 26.2453 11.4611 25.792C11.4611 25.3387 11.5517 24.9413 11.7331 24.6C11.9197 24.2533 12.1784 23.9867 12.5091 23.8C12.8451 23.6133 13.2291 23.52 13.6611 23.52C14.0771 23.52 14.4477 23.6107 14.7731 23.792C15.0984 23.9733 15.3517 24.2293 15.5331 24.56C15.7144 24.8853 15.8051 25.2613 15.8051 25.688ZM14.8531 25.4C14.8477 25.064 14.7277 24.7947 14.4931 24.592C14.2584 24.3893 13.9677 24.288 13.6211 24.288C13.3064 24.288 13.0371 24.3893 12.8131 24.592C12.5891 24.7893 12.4557 25.0587 12.4131 25.4H14.8531ZM20.7426 25.688C20.7426 25.8533 20.7319 26.0027 20.7106 26.136H17.3426C17.3692 26.488 17.4999 26.7707 17.7346 26.984C17.9692 27.1973 18.2572 27.304 18.5986 27.304C19.0892 27.304 19.4359 27.0987 19.6386 26.688H20.6226C20.4892 27.0933 20.2466 27.4267 19.8946 27.688C19.5479 27.944 19.1159 28.072 18.5986 28.072C18.1772 28.072 17.7986 27.9787 17.4626 27.792C17.1319 27.6 16.8706 27.3333 16.6786 26.992C16.4919 26.6453 16.3986 26.2453 16.3986 25.792C16.3986 25.3387 16.4892 24.9413 16.6706 24.6C16.8572 24.2533 17.1159 23.9867 17.4466 23.8C17.7826 23.6133 18.1666 23.52 18.5986 23.52C19.0146 23.52 19.3852 23.6107 19.7106 23.792C20.0359 23.9733 20.2892 24.2293 20.4706 24.56C20.6519 24.8853 20.7426 25.2613 20.7426 25.688ZM19.7906 25.4C19.7852 25.064 19.6652 24.7947 19.4306 24.592C19.1959 24.3893 18.9052 24.288 18.5586 24.288C18.2439 24.288 17.9746 24.3893 17.7506 24.592C17.5266 24.7893 17.3932 25.0587 17.3506 25.4H19.7906ZM22.5521 24.24C22.7067 24.0373 22.9174 23.8667 23.1841 23.728C23.4507 23.5893 23.7521 23.52 24.0881 23.52C24.4721 23.52 24.8214 23.616 25.1361 23.808C25.4561 23.9947 25.7067 24.2587 25.8881 24.6C26.0694 24.9413 26.1601 25.3333 26.1601 25.776C26.1601 26.2187 26.0694 26.616 25.8881 26.968C25.7067 27.3147 25.4561 27.5867 25.1361 27.784C24.8214 27.976 24.4721 28.072 24.0881 28.072C23.7521 28.072 23.4534 28.0053 23.1921 27.872C22.9307 27.7333 22.7174 27.5627 22.5521 27.36V30.096H21.6401V23.592H22.5521V24.24ZM25.2321 25.776C25.2321 25.472 25.1681 25.2107 25.0401 24.992C24.9174 24.768 24.7521 24.6 24.5441 24.488C24.3414 24.3707 24.1227 24.312 23.8881 24.312C23.6587 24.312 23.4401 24.3707 23.2321 24.488C23.0294 24.6053 22.8641 24.776 22.7361 25C22.6134 25.224 22.5521 25.488 22.5521 25.792C22.5521 26.096 22.6134 26.3627 22.7361 26.592C22.8641 26.816 23.0294 26.9867 23.2321 27.104C23.4401 27.2213 23.6587 27.28 23.8881 27.28C24.1227 27.28 24.3414 27.2213 24.5441 27.104C24.7521 26.9813 24.9174 26.8053 25.0401 26.576C25.1681 26.3467 25.2321 26.08 25.2321 25.776Z" fill="#7C8A98"/>
    <path d="M19.5596 11.2003C17.9974 11.0072 16.5524 10.3138 15.4654 9.23565C14.3785 8.15749 13.7151 6.75971 13.586 5.27526C13.4589 3.77893 13.8897 2.28772 14.8037 1.06026C14.8074 1.05362 14.8091 1.04617 14.8086 1.03871C14.8081 1.03124 14.8055 1.02404 14.801 1.01788C14.7965 1.01172 14.7903 1.00682 14.7831 1.00372C14.7759 1.00062 14.768 0.99942 14.7601 1.00026C13.4799 1.30925 12.306 1.92626 11.3527 2.79127C10.3994 3.65628 9.69919 4.73983 9.32012 5.93652C8.94105 7.1332 8.89606 8.40228 9.18951 9.62028C9.48297 10.8383 10.1049 11.9637 10.9948 12.8871C11.8846 13.8106 13.0122 14.5005 14.2677 14.8899C15.5232 15.2792 16.8639 15.3547 18.1594 15.109C19.4549 14.8633 20.6611 14.3047 21.6606 13.4877C22.6601 12.6707 23.4189 11.623 23.8632 10.4465C23.8656 10.4395 23.8657 10.4319 23.8636 10.4248C23.8615 10.4177 23.8572 10.4114 23.8513 10.4066C23.8453 10.4018 23.838 10.3987 23.8303 10.3978C23.8225 10.3969 23.8147 10.3982 23.8077 10.4015C22.5207 11.0962 21.0297 11.3765 19.5596 11.2003Z" stroke="#7C8A98" stroke-width="1.125"/>
</svg>
