<svg width="16" height="15" viewBox="0 0 53 32" fill="none" xmlns="http://www.w3.org/2000/svg">
    <path d="M27.0835 0C22.3522 0 18.5168 3.63575 18.5168 8.12061C18.968 18.8925 35.2008 18.8894 35.6503 8.12057C35.6503 3.63575 31.8148 0 27.0835 0ZM27.6192 2.47801L29.3874 1.3619C30.9005 1.82987 32.218 2.74091 33.1501 3.96386L32.5797 5.8929L29.7867 6.74148L27.6192 5.23138V2.47801ZM24.7797 1.3619L26.5484 2.47821V5.23118L24.3805 6.74148L21.5874 5.89274L21.0171 3.96378C21.9491 2.7408 23.2666 1.82978 24.7797 1.3619ZM21.0389 12.3052C20.0943 11.0903 19.5858 9.6201 19.5881 8.11082L21.2583 6.85858L24.0492 7.70668L24.8819 10.1641L23.1543 12.3872L21.0389 12.3052ZM29.4109 14.8711C27.9583 15.3405 26.2086 15.3404 24.7559 14.8711L24.0189 12.9865L25.7489 10.7601H28.4183L30.148 12.9865L29.4109 14.8711ZM33.128 12.3053L31.0126 12.3873L29.2853 10.1641L30.1181 7.70663L32.9088 6.85875L34.5789 8.11091C34.5812 9.62018 34.0727 11.0904 33.128 12.3053Z" fill="#7C8A98"/>
    <path d="M12.0947 23.388V24.132H10.6147V28.948H9.70272V24.132H8.21472V23.388H12.0947ZM13.9303 25.18C14.0637 24.956 14.2397 24.7827 14.4583 24.66C14.6823 24.532 14.9463 24.468 15.2503 24.468V25.412H15.0183C14.661 25.412 14.389 25.5027 14.2023 25.684C14.021 25.8653 13.9303 26.18 13.9303 26.628V28.948H13.0183V24.54H13.9303V25.18ZM15.7847 26.724C15.7847 26.2813 15.8753 25.8893 16.0567 25.548C16.2433 25.2067 16.494 24.9427 16.8087 24.756C17.1287 24.564 17.4807 24.468 17.8647 24.468C18.2113 24.468 18.5127 24.5373 18.7687 24.676C19.03 24.8093 19.238 24.9773 19.3927 25.18V24.54H20.3127V28.948H19.3927V28.292C19.238 28.5 19.0273 28.6733 18.7607 28.812C18.494 28.9507 18.19 29.02 17.8487 29.02C17.47 29.02 17.1233 28.924 16.8087 28.732C16.494 28.5347 16.2433 28.2627 16.0567 27.916C15.8753 27.564 15.7847 27.1667 15.7847 26.724ZM19.3927 26.74C19.3927 26.436 19.3287 26.172 19.2007 25.948C19.078 25.724 18.9153 25.5533 18.7127 25.436C18.51 25.3187 18.2913 25.26 18.0567 25.26C17.822 25.26 17.6033 25.3187 17.4007 25.436C17.198 25.548 17.0327 25.716 16.9047 25.94C16.782 26.1587 16.7207 26.42 16.7207 26.724C16.7207 27.028 16.782 27.2947 16.9047 27.524C17.0327 27.7533 17.198 27.9293 17.4007 28.052C17.6087 28.1693 17.8273 28.228 18.0567 28.228C18.2913 28.228 18.51 28.1693 18.7127 28.052C18.9153 27.9347 19.078 27.764 19.2007 27.54C19.3287 27.3107 19.3927 27.044 19.3927 26.74ZM21.9745 23.956C21.8092 23.956 21.6705 23.9 21.5585 23.788C21.4465 23.676 21.3905 23.5373 21.3905 23.372C21.3905 23.2067 21.4465 23.068 21.5585 22.956C21.6705 22.844 21.8092 22.788 21.9745 22.788C22.1345 22.788 22.2705 22.844 22.3825 22.956C22.4945 23.068 22.5505 23.2067 22.5505 23.372C22.5505 23.5373 22.4945 23.676 22.3825 23.788C22.2705 23.9 22.1345 23.956 21.9745 23.956ZM22.4225 24.54V28.948H21.5105V24.54H22.4225ZM25.8439 24.468C26.1906 24.468 26.4999 24.54 26.7719 24.684C27.0492 24.828 27.2652 25.0413 27.4199 25.324C27.5746 25.6067 27.6519 25.948 27.6519 26.348V28.948H26.7479V26.484C26.7479 26.0893 26.6492 25.788 26.4519 25.58C26.2546 25.3667 25.9852 25.26 25.6439 25.26C25.3026 25.26 25.0306 25.3667 24.8279 25.58C24.6306 25.788 24.5319 26.0893 24.5319 26.484V28.948H23.6199V24.54H24.5319V25.044C24.6812 24.8627 24.8706 24.7213 25.0999 24.62C25.3346 24.5187 25.5826 24.468 25.8439 24.468ZM29.2792 23.956C29.1139 23.956 28.9752 23.9 28.8632 23.788C28.7512 23.676 28.6952 23.5373 28.6952 23.372C28.6952 23.2067 28.7512 23.068 28.8632 22.956C28.9752 22.844 29.1139 22.788 29.2792 22.788C29.4392 22.788 29.5752 22.844 29.6872 22.956C29.7992 23.068 29.8552 23.2067 29.8552 23.372C29.8552 23.5373 29.7992 23.676 29.6872 23.788C29.5752 23.9 29.4392 23.956 29.2792 23.956ZM29.7272 24.54V28.948H28.8152V24.54H29.7272ZM33.1486 24.468C33.4953 24.468 33.8046 24.54 34.0766 24.684C34.3539 24.828 34.5699 25.0413 34.7246 25.324C34.8793 25.6067 34.9566 25.948 34.9566 26.348V28.948H34.0526V26.484C34.0526 26.0893 33.9539 25.788 33.7566 25.58C33.5593 25.3667 33.2899 25.26 32.9486 25.26C32.6073 25.26 32.3353 25.3667 32.1326 25.58C31.9353 25.788 31.8366 26.0893 31.8366 26.484V28.948H30.9246V24.54H31.8366V25.044C31.9859 24.8627 32.1753 24.7213 32.4046 24.62C32.6393 24.5187 32.8873 24.468 33.1486 24.468ZM37.8959 24.468C38.2372 24.468 38.5386 24.5373 38.7999 24.676C39.0666 24.8093 39.2746 24.9773 39.4239 25.18V24.54H40.3439V29.02C40.3439 29.4253 40.2586 29.7853 40.0879 30.1C39.9172 30.42 39.6692 30.6707 39.3439 30.852C39.0239 31.0333 38.6399 31.124 38.1919 31.124C37.5946 31.124 37.0986 30.9827 36.7039 30.7C36.3092 30.4227 36.0852 30.044 36.0319 29.564H36.9359C37.0052 29.7933 37.1519 29.9773 37.3759 30.116C37.6052 30.26 37.8772 30.332 38.1919 30.332C38.5599 30.332 38.8559 30.22 39.0799 29.996C39.3092 29.772 39.4239 29.4467 39.4239 29.02V28.284C39.2692 28.492 39.0586 28.668 38.7919 28.812C38.5306 28.9507 38.2319 29.02 37.8959 29.02C37.5119 29.02 37.1599 28.924 36.8399 28.732C36.5252 28.5347 36.2746 28.2627 36.0879 27.916C35.9066 27.564 35.8159 27.1667 35.8159 26.724C35.8159 26.2813 35.9066 25.8893 36.0879 25.548C36.2746 25.2067 36.5252 24.9427 36.8399 24.756C37.1599 24.564 37.5119 24.468 37.8959 24.468ZM39.4239 26.74C39.4239 26.436 39.3599 26.172 39.2319 25.948C39.1092 25.724 38.9466 25.5533 38.7439 25.436C38.5412 25.3187 38.3226 25.26 38.0879 25.26C37.8532 25.26 37.6346 25.3187 37.4319 25.436C37.2292 25.548 37.0639 25.716 36.9359 25.94C36.8132 26.1587 36.7519 26.42 36.7519 26.724C36.7519 27.028 36.8132 27.2947 36.9359 27.524C37.0639 27.7533 37.2292 27.9293 37.4319 28.052C37.6399 28.1693 37.8586 28.228 38.0879 28.228C38.3226 28.228 38.5412 28.1693 38.7439 28.052C38.9466 27.9347 39.1092 27.764 39.2319 27.54C39.3599 27.3107 39.4239 27.044 39.4239 26.74ZM43.1418 29.02C42.7951 29.02 42.4831 28.9587 42.2058 28.836C41.9338 28.708 41.7178 28.5373 41.5578 28.324C41.3978 28.1053 41.3124 27.8627 41.3018 27.596H42.2458C42.2618 27.7827 42.3498 27.94 42.5098 28.068C42.6751 28.1907 42.8804 28.252 43.1258 28.252C43.3818 28.252 43.5791 28.204 43.7178 28.108C43.8618 28.0067 43.9338 27.8787 43.9338 27.724C43.9338 27.5587 43.8538 27.436 43.6938 27.356C43.5391 27.276 43.2911 27.188 42.9498 27.092C42.6191 27.0013 42.3498 26.9133 42.1418 26.828C41.9338 26.7427 41.7524 26.612 41.5978 26.436C41.4484 26.26 41.3738 26.028 41.3738 25.74C41.3738 25.5053 41.4431 25.292 41.5818 25.1C41.7204 24.9027 41.9178 24.748 42.1738 24.636C42.4351 24.524 42.7338 24.468 43.0698 24.468C43.5711 24.468 43.9738 24.596 44.2778 24.852C44.5871 25.1027 44.7524 25.4467 44.7738 25.884H43.8618C43.8458 25.6867 43.7658 25.5293 43.6218 25.412C43.4778 25.2947 43.2831 25.236 43.0378 25.236C42.7978 25.236 42.6138 25.2813 42.4858 25.372C42.3578 25.4627 42.2938 25.5827 42.2938 25.732C42.2938 25.8493 42.3364 25.948 42.4218 26.028C42.5071 26.108 42.6111 26.172 42.7338 26.22C42.8564 26.2627 43.0378 26.3187 43.2778 26.388C43.5978 26.4733 43.8591 26.5613 44.0618 26.652C44.2698 26.7373 44.4484 26.8653 44.5978 27.036C44.7471 27.2067 44.8244 27.4333 44.8298 27.716C44.8298 27.9667 44.7604 28.1907 44.6218 28.388C44.4831 28.5853 44.2858 28.74 44.0298 28.852C43.7791 28.964 43.4831 29.02 43.1418 29.02Z" fill="#7C8A98"/>
</svg>
