<svg width="16" height="15" viewBox="0 0 29 35" fill="none" xmlns="http://www.w3.org/2000/svg">
    <path d="M6.25203 29.8456C6.25203 30.1283 6.18536 30.395 6.05202 30.6456C5.91869 30.8963 5.70536 31.1016 5.41202 31.2616C5.11869 31.4163 4.74269 31.4936 4.28402 31.4936H3.27602V33.7496H2.36402V28.1896H4.28402C4.71069 28.1896 5.07069 28.2643 5.36402 28.4136C5.66269 28.5576 5.88403 28.755 6.02803 29.0056C6.17736 29.2563 6.25203 29.5363 6.25203 29.8456ZM4.28402 30.7496C4.63069 30.7496 4.88936 30.6723 5.06002 30.5176C5.23069 30.3576 5.31603 30.1336 5.31603 29.8456C5.31603 29.2376 4.97202 28.9336 4.28402 28.9336H3.27602V30.7496H4.28402ZM8.03384 29.9816C8.16717 29.7576 8.34317 29.5843 8.56184 29.4616C8.78584 29.3336 9.04984 29.2696 9.35384 29.2696V30.2136H9.12184C8.7645 30.2136 8.4925 30.3043 8.30584 30.4856C8.1245 30.667 8.03384 30.9816 8.03384 31.4296V33.7496H7.12184V29.3416H8.03384V29.9816ZM12.1041 33.8216C11.6881 33.8216 11.3121 33.7283 10.9761 33.5416C10.6401 33.3496 10.3761 33.083 10.1841 32.7416C9.99215 32.395 9.89615 31.995 9.89615 31.5416C9.89615 31.0936 9.99482 30.6963 10.1921 30.3496C10.3895 30.003 10.6588 29.7363 11.0001 29.5496C11.3415 29.363 11.7228 29.2696 12.1441 29.2696C12.5655 29.2696 12.9468 29.363 13.2881 29.5496C13.6295 29.7363 13.8988 30.003 14.0961 30.3496C14.2935 30.6963 14.3921 31.0936 14.3921 31.5416C14.3921 31.9896 14.2908 32.387 14.0882 32.7336C13.8855 33.0803 13.6082 33.3496 13.2562 33.5416C12.9095 33.7283 12.5255 33.8216 12.1041 33.8216ZM12.1041 33.0296C12.3388 33.0296 12.5575 32.9736 12.7601 32.8616C12.9681 32.7496 13.1361 32.5816 13.2641 32.3576C13.3921 32.1336 13.4561 31.8616 13.4561 31.5416C13.4561 31.2216 13.3948 30.9523 13.2721 30.7336C13.1495 30.5096 12.9868 30.3416 12.7841 30.2296C12.5815 30.1176 12.3628 30.0616 12.1281 30.0616C11.8935 30.0616 11.6748 30.1176 11.4721 30.2296C11.2748 30.3416 11.1175 30.5096 11.0001 30.7336C10.8828 30.9523 10.8241 31.2216 10.8241 31.5416C10.8241 32.0163 10.9441 32.3843 11.1841 32.6456C11.4295 32.9016 11.7361 33.0296 12.1041 33.0296ZM17.1417 30.0856H16.3257V33.7496H15.4057V30.0856H14.8857V29.3416H15.4057V29.0296C15.4057 28.523 15.539 28.155 15.8057 27.9256C16.0777 27.691 16.5017 27.5736 17.0777 27.5736V28.3336C16.8004 28.3336 16.6057 28.387 16.4937 28.4936C16.3817 28.595 16.3257 28.7736 16.3257 29.0296V29.3416H17.1417V30.0856ZM18.414 28.7576C18.2486 28.7576 18.11 28.7016 17.998 28.5896C17.886 28.4776 17.83 28.339 17.83 28.1736C17.83 28.0083 17.886 27.8696 17.998 27.7576C18.11 27.6456 18.2486 27.5896 18.414 27.5896C18.574 27.5896 18.71 27.6456 18.822 27.7576C18.934 27.8696 18.99 28.0083 18.99 28.1736C18.99 28.339 18.934 28.4776 18.822 28.5896C18.71 28.7016 18.574 28.7576 18.414 28.7576ZM18.862 29.3416V33.7496H17.95V29.3416H18.862ZM20.9713 27.8296V33.7496H20.0593V27.8296H20.9713ZM26.2087 31.4376C26.2087 31.603 26.198 31.7523 26.1767 31.8856H22.8087C22.8354 32.2376 22.966 32.5203 23.2007 32.7336C23.4354 32.947 23.7234 33.0536 24.0647 33.0536C24.5554 33.0536 24.902 32.8483 25.1047 32.4376H26.0887C25.9554 32.843 25.7127 33.1763 25.3607 33.4376C25.014 33.6936 24.582 33.8216 24.0647 33.8216C23.6434 33.8216 23.2647 33.7283 22.9287 33.5416C22.598 33.3496 22.3367 33.083 22.1447 32.7416C21.958 32.395 21.8647 31.995 21.8647 31.5416C21.8647 31.0883 21.9554 30.691 22.1367 30.3496C22.3234 30.003 22.582 29.7363 22.9127 29.5496C23.2487 29.363 23.6327 29.2696 24.0647 29.2696C24.4807 29.2696 24.8514 29.3603 25.1767 29.5416C25.502 29.723 25.7554 29.979 25.9367 30.3096C26.118 30.635 26.2087 31.011 26.2087 31.4376ZM25.2567 31.1496C25.2514 30.8136 25.1314 30.5443 24.8967 30.3416C24.662 30.139 24.3714 30.0376 24.0247 30.0376C23.71 30.0376 23.4407 30.139 23.2167 30.3416C22.9927 30.539 22.8594 30.8083 22.8167 31.1496H25.2567Z" fill="#7C8A98"/>
    <path fill-rule="evenodd" clip-rule="evenodd" d="M13.8275 11.5C12.0691 11.5 10.6392 10.1545 10.6392 8.49999C10.6392 6.84549 12.0691 5.49999 13.8275 5.49999C15.5858 5.49999 17.0158 6.84549 17.0158 8.49999C17.0158 10.1545 15.5858 11.5 13.8275 11.5ZM16.8229 12.0047C18.0879 11.047 18.8252 9.4982 18.5541 7.80245C18.2393 5.8352 16.5001 4.26098 14.4006 4.03148C11.5032 3.71423 9.04505 5.83674 9.04505 8.49999C9.04505 9.91749 9.74328 11.1805 10.8321 12.0047C8.1571 12.9505 6.20427 15.1712 5.89819 18.1682C5.85356 18.6115 6.22101 19 6.69447 19C7.10018 19 7.44612 18.712 7.48199 18.3317C7.80161 14.9845 10.5252 13 13.8275 13C17.1298 13 19.8534 14.9845 20.173 18.3317C20.2089 18.712 20.5548 19 20.9605 19C21.434 19 21.8014 18.6115 21.7568 18.1682C21.4507 15.1712 19.4979 12.9505 16.8229 12.0047Z" fill="#7C8A98"/>
</svg>
