<svg width="20" height="20" viewBox="0 0 20 20" fill="none" xmlns="http://www.w3.org/2000/svg">
    <path d="M10 0C4.47714 0 0 4.48904 0 10.0265C0.526733 23.3264 19.4753 23.3226 20 10.0264C20 4.48904 15.5229 0 10 0ZM10.6253 3.05958L12.6893 1.68153C14.4556 2.25933 15.9935 3.38418 17.0815 4.89416L16.4157 7.27593L13.1554 8.32367L10.6253 6.45916V3.05958ZM7.31079 1.68153L9.3753 3.05983V6.4589L6.84479 8.32367L3.58431 7.27573L2.9186 4.89405C4.0066 3.38405 5.54448 2.25922 7.31079 1.68153ZM2.94412 15.1932C1.84148 13.6931 1.24788 11.8779 1.2506 10.0144L3.20017 8.46825L6.45803 9.51539L7.43 12.5495L5.41341 15.2945L2.94412 15.1932ZM12.7168 18.3613C11.0211 18.9408 8.97867 18.9407 7.28301 18.3612L6.42262 16.0343L8.44207 13.2854H11.5581L13.5772 16.0344L12.7168 18.3613ZM17.0558 15.1933L14.5865 15.2945L12.5702 12.5496L13.5423 9.51532L16.7999 8.46845L18.7494 10.0145C18.7521 11.878 18.1585 13.6932 17.0558 15.1933Z" fill="#FCFCFC"/>
</svg>
