<svg width="16" height="15" viewBox="0 0 47 48" fill="none" xmlns="http://www.w3.org/2000/svg">
    <path d="M0 23.5C0 10.5213 10.5213 0 23.5 0C36.4787 0 47 10.5213 47 23.5V24.5C47 37.4787 36.4787 48 23.5 48C10.5213 48 0 37.4787 0 24.5V23.5Z" fill="#FAE4D6"/>
    <path opacity="0.5" d="M14 24.2039C14 21.9155 14 20.7713 14.5192 19.8227C15.0384 18.8742 15.9869 18.2855 17.884 17.1081L19.884 15.8669C21.8894 14.6223 22.8921 14 24 14C25.1079 14 26.1106 14.6223 28.116 15.8669L30.116 17.1081C32.0131 18.2855 32.9616 18.8742 33.4808 19.8227C34 20.7713 34 21.9155 34 24.2039V25.725C34 29.6258 34 31.5763 32.8284 32.7881C31.6569 34 29.7712 34 26 34H22C18.2288 34 16.3432 34 15.1716 32.7881C14 31.5763 14 29.6258 14 25.725V24.2039Z" stroke="#F65123" stroke-width="1.5"/>
    <path d="M24 27V30" stroke="#F65123" stroke-width="1.5" stroke-linecap="round"/>
</svg>

