<svg width="16" height="15" viewBox="0 0 67 48" fill="none" xmlns="http://www.w3.org/2000/svg">
    <rect width="67" height="48" rx="24" fill="#FAE4D6"/>
    <path d="M38.4244 19.6414V12.4103C38.4244 11.8499 38.4244 11.5697 38.4838 11.3399C38.6449 10.716 39.1145 10.2287 39.7159 10.0616C39.9374 9.99997 40.2075 9.99997 40.7476 9.99997C41.2878 9.99997 41.5578 9.99997 41.7794 10.0616C42.3807 10.2287 42.8503 10.716 43.0115 11.3399C43.0708 11.5697 43.0708 11.8499 43.0708 12.4103V19.6414C43.0708 20.2018 43.0708 20.482 43.0115 20.7119C42.8503 21.3357 42.3807 21.823 41.7794 21.9902C41.5578 22.0518 41.2878 22.0518 40.7476 22.0518C40.2075 22.0518 39.9374 22.0518 39.7159 21.9902C39.1145 21.823 38.6449 21.3357 38.4838 20.7119C38.4244 20.482 38.4244 20.2018 38.4244 19.6414Z" stroke="#F65123" stroke-width="1.53791" stroke-linejoin="round"/>
    <path d="M25.647 19.6414V12.4103C25.647 11.8499 25.647 11.5697 25.7063 11.3399C25.8675 10.716 26.3371 10.2287 26.9384 10.0616C27.16 9.99997 27.43 9.99997 27.9702 9.99997C28.5103 9.99997 28.7804 9.99997 29.0019 10.0616C29.6032 10.2287 30.0729 10.716 30.234 11.3399C30.2934 11.5697 30.2934 11.8499 30.2934 12.4103V19.6414C30.2934 20.2018 30.2934 20.482 30.234 20.7119C30.0729 21.3357 29.6032 21.823 29.0019 21.9902C28.7804 22.0518 28.5103 22.0518 27.9702 22.0518C27.43 22.0518 27.16 22.0518 26.9384 21.9902C26.3371 21.823 25.8675 21.3357 25.7063 20.7119C25.647 20.482 25.647 20.2018 25.647 19.6414Z" stroke="#F65123" stroke-width="1.53791" stroke-linejoin="round"/>
    <path d="M25.0662 14.5195C24.2643 14.5195 23.6142 15.1939 23.6142 16.026H21.8718C21.8718 14.1955 23.302 12.7117 25.0662 12.7117V14.5195ZM43.6517 12.7117C45.416 12.7117 46.8461 14.1955 46.8461 16.026H45.1037C45.1037 15.1939 44.4537 14.5195 43.6517 14.5195V12.7117ZM43.6517 17.5324C44.4537 17.5324 45.1037 16.858 45.1037 16.026H46.8461C46.8461 17.8564 45.416 19.3402 43.6517 19.3402V17.5324ZM25.0662 19.3402C23.302 19.3402 21.8718 17.8564 21.8718 16.026H23.6142C23.6142 16.858 24.2643 17.5324 25.0662 17.5324V19.3402ZM25.0662 17.5324H26.2278V19.3402H25.0662V17.5324ZM26.2278 14.5195H25.0662V12.7117H26.2278V14.5195ZM43.6517 14.5195H42.4901V12.7117H43.6517V14.5195ZM42.4901 17.5324H43.6517V19.3402H42.4901V17.5324ZM30.8742 15.1221L37.9267 15.1221V16.9299L30.8742 16.9299V15.1221Z" fill="#F65123"/>
    <path d="M23.7161 32.2414L22.0681 37.8014H21.0361L19.8681 33.5934L18.6281 37.8014L17.6041 37.8094L16.0281 32.2414H16.9961L18.1481 36.7694L19.3961 32.2414H20.4201L21.5801 36.7454L22.7401 32.2414H23.7161ZM26.3803 37.8734C25.9643 37.8734 25.5883 37.7801 25.2523 37.5934C24.9163 37.4014 24.6523 37.1347 24.4603 36.7934C24.2683 36.4467 24.1723 36.0467 24.1723 35.5934C24.1723 35.1454 24.271 34.7481 24.4683 34.4014C24.6657 34.0547 24.935 33.7881 25.2763 33.6014C25.6177 33.4147 25.999 33.3214 26.4203 33.3214C26.8417 33.3214 27.223 33.4147 27.5643 33.6014C27.9057 33.7881 28.175 34.0547 28.3723 34.4014C28.5697 34.7481 28.6683 35.1454 28.6683 35.5934C28.6683 36.0414 28.567 36.4387 28.3643 36.7854C28.1617 37.1321 27.8843 37.4014 27.5323 37.5934C27.1857 37.7801 26.8017 37.8734 26.3803 37.8734ZM26.3803 37.0814C26.615 37.0814 26.8337 37.0254 27.0363 36.9134C27.2443 36.8014 27.4123 36.6334 27.5403 36.4094C27.6683 36.1854 27.7323 35.9134 27.7323 35.5934C27.7323 35.2734 27.671 35.0041 27.5483 34.7854C27.4257 34.5614 27.263 34.3934 27.0603 34.2814C26.8577 34.1694 26.639 34.1134 26.4043 34.1134C26.1697 34.1134 25.951 34.1694 25.7483 34.2814C25.551 34.3934 25.3937 34.5614 25.2763 34.7854C25.159 35.0041 25.1003 35.2734 25.1003 35.5934C25.1003 36.0681 25.2203 36.4361 25.4603 36.6974C25.7057 36.9534 26.0123 37.0814 26.3803 37.0814ZM30.4819 34.0334C30.6152 33.8094 30.7912 33.6361 31.0099 33.5134C31.2339 33.3854 31.4979 33.3214 31.8019 33.3214V34.2654H31.5699C31.2126 34.2654 30.9406 34.3561 30.7539 34.5374C30.5726 34.7187 30.4819 35.0334 30.4819 35.4814V37.8014H29.5699V33.3934H30.4819V34.0334ZM34.3842 35.6014L36.4162 37.8014H35.1842L33.5522 35.9054V37.8014H32.6402V31.8814H33.5522V35.3214L35.1522 33.3934H36.4162L34.3842 35.6014ZM38.9819 37.8734C38.5659 37.8734 38.1899 37.7801 37.8539 37.5934C37.5179 37.4014 37.2539 37.1347 37.0619 36.7934C36.8699 36.4467 36.7739 36.0467 36.7739 35.5934C36.7739 35.1454 36.8726 34.7481 37.0699 34.4014C37.2672 34.0547 37.5366 33.7881 37.8779 33.6014C38.2192 33.4147 38.6006 33.3214 39.0219 33.3214C39.4432 33.3214 39.8246 33.4147 40.1659 33.6014C40.5072 33.7881 40.7766 34.0547 40.9739 34.4014C41.1712 34.7481 41.2699 35.1454 41.2699 35.5934C41.2699 36.0414 41.1686 36.4387 40.9659 36.7854C40.7632 37.1321 40.4859 37.4014 40.1339 37.5934C39.7872 37.7801 39.4032 37.8734 38.9819 37.8734ZM38.9819 37.0814C39.2166 37.0814 39.4352 37.0254 39.6379 36.9134C39.8459 36.8014 40.0139 36.6334 40.1419 36.4094C40.2699 36.1854 40.3339 35.9134 40.3339 35.5934C40.3339 35.2734 40.2726 35.0041 40.1499 34.7854C40.0272 34.5614 39.8646 34.3934 39.6619 34.2814C39.4592 34.1694 39.2406 34.1134 39.0059 34.1134C38.7712 34.1134 38.5526 34.1694 38.3499 34.2814C38.1526 34.3934 37.9952 34.5614 37.8779 34.7854C37.7606 35.0041 37.7019 35.2734 37.7019 35.5934C37.7019 36.0681 37.8219 36.4361 38.0619 36.6974C38.3072 36.9534 38.6139 37.0814 38.9819 37.0814ZM46.1635 33.3934V37.8014H45.2515V37.2814C45.1075 37.4627 44.9181 37.6067 44.6835 37.7134C44.4541 37.8147 44.2088 37.8654 43.9475 37.8654C43.6008 37.8654 43.2888 37.7934 43.0115 37.6494C42.7395 37.5054 42.5235 37.2921 42.3635 37.0094C42.2088 36.7267 42.1315 36.3854 42.1315 35.9854V33.3934H43.0355V35.8494C43.0355 36.2441 43.1341 36.5481 43.3315 36.7614C43.5288 36.9694 43.7981 37.0734 44.1395 37.0734C44.4808 37.0734 44.7501 36.9694 44.9475 36.7614C45.1501 36.5481 45.2515 36.2441 45.2515 35.8494V33.3934H46.1635ZM48.4308 34.1374V36.5774C48.4308 36.7427 48.4681 36.8627 48.5428 36.9374C48.6228 37.0067 48.7561 37.0414 48.9428 37.0414H49.5028V37.8014H48.7828C48.3721 37.8014 48.0574 37.7054 47.8388 37.5134C47.6201 37.3214 47.5108 37.0094 47.5108 36.5774V34.1374H46.9908V33.3934H47.5108V32.2974H48.4308V33.3934H49.5028V34.1374H48.4308ZM51.9433 37.8734C51.5967 37.8734 51.2847 37.8121 51.0073 37.6894C50.7353 37.5614 50.5193 37.3907 50.3593 37.1774C50.1993 36.9587 50.114 36.7161 50.1033 36.4494H51.0473C51.0633 36.6361 51.1513 36.7934 51.3113 36.9214C51.4767 37.0441 51.682 37.1054 51.9273 37.1054C52.1833 37.1054 52.3807 37.0574 52.5193 36.9614C52.6633 36.8601 52.7353 36.7321 52.7353 36.5774C52.7353 36.4121 52.6553 36.2894 52.4953 36.2094C52.3407 36.1294 52.0927 36.0414 51.7513 35.9454C51.4207 35.8547 51.1513 35.7667 50.9433 35.6814C50.7353 35.5961 50.554 35.4654 50.3993 35.2894C50.25 35.1134 50.1753 34.8814 50.1753 34.5934C50.1753 34.3587 50.2447 34.1454 50.3833 33.9534C50.522 33.7561 50.7193 33.6014 50.9753 33.4894C51.2367 33.3774 51.5353 33.3214 51.8713 33.3214C52.3727 33.3214 52.7753 33.4494 53.0793 33.7054C53.3887 33.9561 53.554 34.3001 53.5753 34.7374H52.6633C52.6473 34.5401 52.5673 34.3827 52.4233 34.2654C52.2793 34.1481 52.0847 34.0894 51.8393 34.0894C51.5993 34.0894 51.4153 34.1347 51.2873 34.2254C51.1593 34.3161 51.0953 34.4361 51.0953 34.5854C51.0953 34.7027 51.138 34.8014 51.2233 34.8814C51.3087 34.9614 51.4127 35.0254 51.5353 35.0734C51.658 35.1161 51.8393 35.1721 52.0793 35.2414C52.3993 35.3267 52.6607 35.4147 52.8633 35.5054C53.0713 35.5907 53.25 35.7187 53.3993 35.8894C53.5487 36.0601 53.626 36.2867 53.6313 36.5694C53.6313 36.8201 53.562 37.0441 53.4233 37.2414C53.2847 37.4387 53.0873 37.5934 52.8313 37.7054C52.5807 37.8174 52.2847 37.8734 51.9433 37.8734Z" fill="#F65123"/>
</svg>
