<svg width="16" height="15" viewBox="0 0 67 48" fill="none" xmlns="http://www.w3.org/2000/svg">
    <rect width="67" height="48" rx="24" fill="#FAE4D6"/>
    <path d="M34.0835 8C29.3522 8 25.5168 11.6357 25.5168 16.1206C25.968 26.8925 42.2008 26.8894 42.6503 16.1206C42.6503 11.6357 38.8148 8 34.0835 8ZM34.6192 10.478L36.3874 9.3619C37.9005 9.82987 39.218 10.7409 40.1501 11.9639L39.5797 13.8929L36.7867 14.7415L34.6192 13.2314V10.478ZM31.7797 9.3619L33.5484 10.4782V13.2312L31.3805 14.7415L28.5874 13.8927L28.0171 11.9638C28.9491 10.7408 30.2666 9.82978 31.7797 9.3619ZM28.0389 20.3052C27.0943 19.0903 26.5858 17.6201 26.5881 16.1108L28.2583 14.8586L31.0492 15.7067L31.8819 18.1641L30.1543 20.3872L28.0389 20.3052ZM36.4109 22.8711C34.9583 23.3405 33.2086 23.3404 31.7559 22.8711L31.0189 20.9865L32.7489 18.7601H35.4183L37.148 20.9865L36.4109 22.8711ZM40.128 20.3053L38.0126 20.3873L36.2853 18.1641L37.1181 15.7066L39.9088 14.8587L41.5789 16.1109C41.5812 17.6202 41.0727 19.0904 40.128 20.3053Z" fill="#F65123"/>
    <path d="M19.0947 31.388V32.132H17.6147V36.948H16.7027V32.132H15.2147V31.388H19.0947ZM20.9303 33.18C21.0637 32.956 21.2397 32.7827 21.4583 32.66C21.6823 32.532 21.9463 32.468 22.2503 32.468V33.412H22.0183C21.661 33.412 21.389 33.5027 21.2023 33.684C21.021 33.8653 20.9303 34.18 20.9303 34.628V36.948H20.0183V32.54H20.9303V33.18ZM22.7847 34.724C22.7847 34.2813 22.8753 33.8893 23.0567 33.548C23.2433 33.2067 23.494 32.9427 23.8087 32.756C24.1287 32.564 24.4807 32.468 24.8647 32.468C25.2113 32.468 25.5127 32.5373 25.7687 32.676C26.03 32.8093 26.238 32.9773 26.3927 33.18V32.54H27.3127V36.948H26.3927V36.292C26.238 36.5 26.0273 36.6733 25.7607 36.812C25.494 36.9507 25.19 37.02 24.8487 37.02C24.47 37.02 24.1233 36.924 23.8087 36.732C23.494 36.5347 23.2433 36.2627 23.0567 35.916C22.8753 35.564 22.7847 35.1667 22.7847 34.724ZM26.3927 34.74C26.3927 34.436 26.3287 34.172 26.2007 33.948C26.078 33.724 25.9153 33.5533 25.7127 33.436C25.51 33.3187 25.2913 33.26 25.0567 33.26C24.822 33.26 24.6033 33.3187 24.4007 33.436C24.198 33.548 24.0327 33.716 23.9047 33.94C23.782 34.1587 23.7207 34.42 23.7207 34.724C23.7207 35.028 23.782 35.2947 23.9047 35.524C24.0327 35.7533 24.198 35.9293 24.4007 36.052C24.6087 36.1693 24.8273 36.228 25.0567 36.228C25.2913 36.228 25.51 36.1693 25.7127 36.052C25.9153 35.9347 26.078 35.764 26.2007 35.54C26.3287 35.3107 26.3927 35.044 26.3927 34.74ZM28.9745 31.956C28.8092 31.956 28.6705 31.9 28.5585 31.788C28.4465 31.676 28.3905 31.5373 28.3905 31.372C28.3905 31.2067 28.4465 31.068 28.5585 30.956C28.6705 30.844 28.8092 30.788 28.9745 30.788C29.1345 30.788 29.2705 30.844 29.3825 30.956C29.4945 31.068 29.5505 31.2067 29.5505 31.372C29.5505 31.5373 29.4945 31.676 29.3825 31.788C29.2705 31.9 29.1345 31.956 28.9745 31.956ZM29.4225 32.54V36.948H28.5105V32.54H29.4225ZM32.8439 32.468C33.1906 32.468 33.4999 32.54 33.7719 32.684C34.0492 32.828 34.2652 33.0413 34.4199 33.324C34.5746 33.6067 34.6519 33.948 34.6519 34.348V36.948H33.7479V34.484C33.7479 34.0893 33.6492 33.788 33.4519 33.58C33.2546 33.3667 32.9852 33.26 32.6439 33.26C32.3026 33.26 32.0306 33.3667 31.8279 33.58C31.6306 33.788 31.5319 34.0893 31.5319 34.484V36.948H30.6199V32.54H31.5319V33.044C31.6812 32.8627 31.8706 32.7213 32.0999 32.62C32.3346 32.5187 32.5826 32.468 32.8439 32.468ZM36.2792 31.956C36.1139 31.956 35.9752 31.9 35.8632 31.788C35.7512 31.676 35.6952 31.5373 35.6952 31.372C35.6952 31.2067 35.7512 31.068 35.8632 30.956C35.9752 30.844 36.1139 30.788 36.2792 30.788C36.4392 30.788 36.5752 30.844 36.6872 30.956C36.7992 31.068 36.8552 31.2067 36.8552 31.372C36.8552 31.5373 36.7992 31.676 36.6872 31.788C36.5752 31.9 36.4392 31.956 36.2792 31.956ZM36.7272 32.54V36.948H35.8152V32.54H36.7272ZM40.1486 32.468C40.4953 32.468 40.8046 32.54 41.0766 32.684C41.3539 32.828 41.5699 33.0413 41.7246 33.324C41.8793 33.6067 41.9566 33.948 41.9566 34.348V36.948H41.0526V34.484C41.0526 34.0893 40.9539 33.788 40.7566 33.58C40.5593 33.3667 40.2899 33.26 39.9486 33.26C39.6073 33.26 39.3353 33.3667 39.1326 33.58C38.9353 33.788 38.8366 34.0893 38.8366 34.484V36.948H37.9246V32.54H38.8366V33.044C38.9859 32.8627 39.1753 32.7213 39.4046 32.62C39.6393 32.5187 39.8873 32.468 40.1486 32.468ZM44.8959 32.468C45.2372 32.468 45.5386 32.5373 45.7999 32.676C46.0666 32.8093 46.2746 32.9773 46.4239 33.18V32.54H47.3439V37.02C47.3439 37.4253 47.2586 37.7853 47.0879 38.1C46.9172 38.42 46.6692 38.6707 46.3439 38.852C46.0239 39.0333 45.6399 39.124 45.1919 39.124C44.5946 39.124 44.0986 38.9827 43.7039 38.7C43.3092 38.4227 43.0852 38.044 43.0319 37.564H43.9359C44.0052 37.7933 44.1519 37.9773 44.3759 38.116C44.6052 38.26 44.8772 38.332 45.1919 38.332C45.5599 38.332 45.8559 38.22 46.0799 37.996C46.3092 37.772 46.4239 37.4467 46.4239 37.02V36.284C46.2692 36.492 46.0586 36.668 45.7919 36.812C45.5306 36.9507 45.2319 37.02 44.8959 37.02C44.5119 37.02 44.1599 36.924 43.8399 36.732C43.5252 36.5347 43.2746 36.2627 43.0879 35.916C42.9066 35.564 42.8159 35.1667 42.8159 34.724C42.8159 34.2813 42.9066 33.8893 43.0879 33.548C43.2746 33.2067 43.5252 32.9427 43.8399 32.756C44.1599 32.564 44.5119 32.468 44.8959 32.468ZM46.4239 34.74C46.4239 34.436 46.3599 34.172 46.2319 33.948C46.1092 33.724 45.9466 33.5533 45.7439 33.436C45.5412 33.3187 45.3226 33.26 45.0879 33.26C44.8532 33.26 44.6346 33.3187 44.4319 33.436C44.2292 33.548 44.0639 33.716 43.9359 33.94C43.8132 34.1587 43.7519 34.42 43.7519 34.724C43.7519 35.028 43.8132 35.2947 43.9359 35.524C44.0639 35.7533 44.2292 35.9293 44.4319 36.052C44.6399 36.1693 44.8586 36.228 45.0879 36.228C45.3226 36.228 45.5412 36.1693 45.7439 36.052C45.9466 35.9347 46.1092 35.764 46.2319 35.54C46.3599 35.3107 46.4239 35.044 46.4239 34.74ZM50.1418 37.02C49.7951 37.02 49.4831 36.9587 49.2058 36.836C48.9338 36.708 48.7178 36.5373 48.5578 36.324C48.3978 36.1053 48.3124 35.8627 48.3018 35.596H49.2458C49.2618 35.7827 49.3498 35.94 49.5098 36.068C49.6751 36.1907 49.8804 36.252 50.1258 36.252C50.3818 36.252 50.5791 36.204 50.7178 36.108C50.8618 36.0067 50.9338 35.8787 50.9338 35.724C50.9338 35.5587 50.8538 35.436 50.6938 35.356C50.5391 35.276 50.2911 35.188 49.9498 35.092C49.6191 35.0013 49.3498 34.9133 49.1418 34.828C48.9338 34.7427 48.7524 34.612 48.5978 34.436C48.4484 34.26 48.3738 34.028 48.3738 33.74C48.3738 33.5053 48.4431 33.292 48.5818 33.1C48.7204 32.9027 48.9178 32.748 49.1738 32.636C49.4351 32.524 49.7338 32.468 50.0698 32.468C50.5711 32.468 50.9738 32.596 51.2778 32.852C51.5871 33.1027 51.7524 33.4467 51.7738 33.884H50.8618C50.8458 33.6867 50.7658 33.5293 50.6218 33.412C50.4778 33.2947 50.2831 33.236 50.0378 33.236C49.7978 33.236 49.6138 33.2813 49.4858 33.372C49.3578 33.4627 49.2938 33.5827 49.2938 33.732C49.2938 33.8493 49.3364 33.948 49.4218 34.028C49.5071 34.108 49.6111 34.172 49.7338 34.22C49.8564 34.2627 50.0378 34.3187 50.2778 34.388C50.5978 34.4733 50.8591 34.5613 51.0618 34.652C51.2698 34.7373 51.4484 34.8653 51.5978 35.036C51.7471 35.2067 51.8244 35.4333 51.8298 35.716C51.8298 35.9667 51.7604 36.1907 51.6218 36.388C51.4831 36.5853 51.2858 36.74 51.0298 36.852C50.7791 36.964 50.4831 37.02 50.1418 37.02Z" fill="#F65123"/>
</svg>
