<svg width="26" height="14" viewBox="0 0 26 14" fill="none" xmlns="http://www.w3.org/2000/svg">
    <path d="M17.4244 10.6414V3.41032C17.4244 2.84992 17.4244 2.56971 17.4838 2.33988C17.6449 1.71596 18.1145 1.22871 18.7159 1.06155C18.9374 0.999965 19.2075 0.999966 19.7476 0.999966C20.2878 0.999966 20.5578 0.999965 20.7794 1.06155C21.3807 1.22871 21.8503 1.71596 22.0115 2.33988C22.0708 2.56971 22.0708 2.84992 22.0708 3.41032V10.6414C22.0708 11.2018 22.0708 11.482 22.0115 11.7119C21.8503 12.3357 21.3807 12.823 20.7794 12.9902C20.5578 13.0518 20.2878 13.0518 19.7476 13.0518C19.2075 13.0518 18.9374 13.0518 18.7159 12.9902C18.1145 12.823 17.6449 12.3357 17.4838 11.7119C17.4244 11.482 17.4244 11.2018 17.4244 10.6414Z" stroke="#FCFCFC" stroke-width="1.53791" stroke-linejoin="round"/>
    <path d="M4.64694 10.6414V3.41032C4.64694 2.84992 4.64694 2.56971 4.70631 2.33988C4.86742 1.71596 5.33708 1.22871 5.93837 1.06155C6.15994 0.999965 6.43 0.999966 6.97013 0.999966C7.51026 0.999966 7.78032 0.999965 8.00189 1.06155C8.60318 1.22871 9.07284 1.71596 9.23395 2.33988C9.29332 2.56971 9.29332 2.84992 9.29332 3.41032V10.6414C9.29332 11.2018 9.29332 11.482 9.23395 11.7119C9.07284 12.3357 8.60318 12.823 8.00189 12.9902C7.78032 13.0518 7.51026 13.0518 6.97013 13.0518C6.43 13.0518 6.15994 13.0518 5.93837 12.9902C5.33708 12.823 4.86742 12.3357 4.70631 11.7119C4.64694 11.482 4.64694 11.2018 4.64694 10.6414Z" stroke="#FCFCFC" stroke-width="1.53791" stroke-linejoin="round"/>
    <path d="M4.06618 5.51949C3.26426 5.51949 2.61419 6.19391 2.61419 7.02597H0.871796C0.871796 5.19554 2.30197 3.71172 4.06618 3.71172V5.51949ZM22.6517 3.71172C24.4159 3.71172 25.8461 5.19554 25.8461 7.02597H24.1037C24.1037 6.19391 23.4537 5.51949 22.6517 5.51949V3.71172ZM22.6517 8.53244C23.4537 8.53244 24.1037 7.85802 24.1037 7.02597H25.8461C25.8461 8.85639 24.4159 10.3402 22.6517 10.3402V8.53244ZM4.06618 10.3402C2.30197 10.3402 0.871796 8.85639 0.871796 7.02597H2.61419C2.61419 7.85802 3.26426 8.53244 4.06618 8.53244V10.3402ZM4.06618 8.53244H5.22778V10.3402H4.06618V8.53244ZM5.22778 5.51949H4.06618V3.71172H5.22778V5.51949ZM22.6517 5.51949H21.4901V3.71172H22.6517V5.51949ZM21.4901 8.53244H22.6517V10.3402H21.4901V8.53244ZM9.87415 6.12208L16.9267 6.12208V7.92985L9.87415 7.92985V6.12208Z" fill="#FCFCFC"/>
</svg>
