<svg width="16" height="15" viewBox="0 0 46 39" fill="none" xmlns="http://www.w3.org/2000/svg">
    <path d="M26.4244 10.6414V3.41032C26.4244 2.84992 26.4244 2.56971 26.4838 2.33988C26.6449 1.71596 27.1145 1.22871 27.7159 1.06155C27.9374 0.999965 28.2075 0.999966 28.7476 0.999966C29.2878 0.999966 29.5578 0.999965 29.7794 1.06155C30.3807 1.22871 30.8503 1.71596 31.0115 2.33988C31.0708 2.56971 31.0708 2.84992 31.0708 3.41032V10.6414C31.0708 11.2018 31.0708 11.482 31.0115 11.7119C30.8503 12.3357 30.3807 12.823 29.7794 12.9902C29.5578 13.0518 29.2878 13.0518 28.7476 13.0518C28.2075 13.0518 27.9374 13.0518 27.7159 12.9902C27.1145 12.823 26.6449 12.3357 26.4838 11.7119C26.4244 11.482 26.4244 11.2018 26.4244 10.6414Z" stroke="#7C8A98" stroke-width="1.53791" stroke-linejoin="round"/>
    <path d="M13.647 10.6414V3.41032C13.647 2.84992 13.647 2.56971 13.7063 2.33988C13.8675 1.71596 14.3371 1.22871 14.9384 1.06155C15.16 0.999965 15.43 0.999966 15.9702 0.999966C16.5103 0.999966 16.7804 0.999965 17.0019 1.06155C17.6032 1.22871 18.0729 1.71596 18.234 2.33988C18.2934 2.56971 18.2934 2.84992 18.2934 3.41032V10.6414C18.2934 11.2018 18.2934 11.482 18.234 11.7119C18.0729 12.3357 17.6032 12.823 17.0019 12.9902C16.7804 13.0518 16.5103 13.0518 15.9702 13.0518C15.43 13.0518 15.16 13.0518 14.9384 12.9902C14.3371 12.823 13.8675 12.3357 13.7063 11.7119C13.647 11.482 13.647 11.2018 13.647 10.6414Z" stroke="#7C8A98" stroke-width="1.53791" stroke-linejoin="round"/>
    <path d="M13.0662 5.51949C12.2643 5.51949 11.6142 6.19391 11.6142 7.02597H9.87183C9.87183 5.19554 11.302 3.71172 13.0662 3.71172V5.51949ZM31.6517 3.71172C33.416 3.71172 34.8461 5.19554 34.8461 7.02597H33.1037C33.1037 6.19391 32.4537 5.51949 31.6517 5.51949V3.71172ZM31.6517 8.53244C32.4537 8.53244 33.1037 7.85802 33.1037 7.02597H34.8461C34.8461 8.85639 33.416 10.3402 31.6517 10.3402V8.53244ZM13.0662 10.3402C11.302 10.3402 9.87183 8.85639 9.87183 7.02597H11.6142C11.6142 7.85802 12.2643 8.53244 13.0662 8.53244V10.3402ZM13.0662 8.53244H14.2278V10.3402H13.0662V8.53244ZM14.2278 5.51949H13.0662V3.71172H14.2278V5.51949ZM31.6517 5.51949H30.4901V3.71172H31.6517V5.51949ZM30.4901 8.53244H31.6517V10.3402H30.4901V8.53244ZM18.8742 6.12208L25.9267 6.12208V7.92985L18.8742 7.92985V6.12208Z" fill="#7C8A98"/>
    <path d="M11.7161 23.2414L10.0681 28.8014H9.03615L7.86815 24.5934L6.62815 28.8014L5.60415 28.8094L4.02815 23.2414H4.99615L6.14815 27.7694L7.39615 23.2414H8.42015L9.58015 27.7454L10.7401 23.2414H11.7161ZM14.3803 28.8734C13.9643 28.8734 13.5883 28.7801 13.2523 28.5934C12.9163 28.4014 12.6523 28.1347 12.4603 27.7934C12.2683 27.4467 12.1723 27.0467 12.1723 26.5934C12.1723 26.1454 12.271 25.7481 12.4683 25.4014C12.6657 25.0547 12.935 24.7881 13.2763 24.6014C13.6177 24.4147 13.999 24.3214 14.4203 24.3214C14.8417 24.3214 15.223 24.4147 15.5643 24.6014C15.9057 24.7881 16.175 25.0547 16.3723 25.4014C16.5697 25.7481 16.6683 26.1454 16.6683 26.5934C16.6683 27.0414 16.567 27.4387 16.3643 27.7854C16.1617 28.1321 15.8843 28.4014 15.5323 28.5934C15.1857 28.7801 14.8017 28.8734 14.3803 28.8734ZM14.3803 28.0814C14.615 28.0814 14.8337 28.0254 15.0363 27.9134C15.2443 27.8014 15.4123 27.6334 15.5403 27.4094C15.6683 27.1854 15.7323 26.9134 15.7323 26.5934C15.7323 26.2734 15.671 26.0041 15.5483 25.7854C15.4257 25.5614 15.263 25.3934 15.0603 25.2814C14.8577 25.1694 14.639 25.1134 14.4043 25.1134C14.1697 25.1134 13.951 25.1694 13.7483 25.2814C13.551 25.3934 13.3937 25.5614 13.2763 25.7854C13.159 26.0041 13.1003 26.2734 13.1003 26.5934C13.1003 27.0681 13.2203 27.4361 13.4603 27.6974C13.7057 27.9534 14.0123 28.0814 14.3803 28.0814ZM18.4819 25.0334C18.6152 24.8094 18.7912 24.6361 19.0099 24.5134C19.2339 24.3854 19.4979 24.3214 19.8019 24.3214V25.2654H19.5699C19.2126 25.2654 18.9406 25.3561 18.7539 25.5374C18.5726 25.7187 18.4819 26.0334 18.4819 26.4814V28.8014H17.5699V24.3934H18.4819V25.0334ZM22.3842 26.6014L24.4162 28.8014H23.1842L21.5522 26.9054V28.8014H20.6402V22.8814H21.5522V26.3214L23.1522 24.3934H24.4162L22.3842 26.6014ZM26.9819 28.8734C26.5659 28.8734 26.1899 28.7801 25.8539 28.5934C25.5179 28.4014 25.2539 28.1347 25.0619 27.7934C24.8699 27.4467 24.7739 27.0467 24.7739 26.5934C24.7739 26.1454 24.8726 25.7481 25.0699 25.4014C25.2672 25.0547 25.5366 24.7881 25.8779 24.6014C26.2192 24.4147 26.6006 24.3214 27.0219 24.3214C27.4432 24.3214 27.8246 24.4147 28.1659 24.6014C28.5072 24.7881 28.7766 25.0547 28.9739 25.4014C29.1712 25.7481 29.2699 26.1454 29.2699 26.5934C29.2699 27.0414 29.1686 27.4387 28.9659 27.7854C28.7632 28.1321 28.4859 28.4014 28.1339 28.5934C27.7872 28.7801 27.4032 28.8734 26.9819 28.8734ZM26.9819 28.0814C27.2166 28.0814 27.4352 28.0254 27.6379 27.9134C27.8459 27.8014 28.0139 27.6334 28.1419 27.4094C28.2699 27.1854 28.3339 26.9134 28.3339 26.5934C28.3339 26.2734 28.2726 26.0041 28.1499 25.7854C28.0272 25.5614 27.8646 25.3934 27.6619 25.2814C27.4592 25.1694 27.2406 25.1134 27.0059 25.1134C26.7712 25.1134 26.5526 25.1694 26.3499 25.2814C26.1526 25.3934 25.9952 25.5614 25.8779 25.7854C25.7606 26.0041 25.7019 26.2734 25.7019 26.5934C25.7019 27.0681 25.8219 27.4361 26.0619 27.6974C26.3072 27.9534 26.6139 28.0814 26.9819 28.0814ZM34.1635 24.3934V28.8014H33.2515V28.2814C33.1075 28.4627 32.9181 28.6067 32.6835 28.7134C32.4541 28.8147 32.2088 28.8654 31.9475 28.8654C31.6008 28.8654 31.2888 28.7934 31.0115 28.6494C30.7395 28.5054 30.5235 28.2921 30.3635 28.0094C30.2088 27.7267 30.1315 27.3854 30.1315 26.9854V24.3934H31.0355V26.8494C31.0355 27.2441 31.1341 27.5481 31.3315 27.7614C31.5288 27.9694 31.7981 28.0734 32.1395 28.0734C32.4808 28.0734 32.7501 27.9694 32.9475 27.7614C33.1501 27.5481 33.2515 27.2441 33.2515 26.8494V24.3934H34.1635ZM36.4308 25.1374V27.5774C36.4308 27.7427 36.4681 27.8627 36.5428 27.9374C36.6228 28.0067 36.7561 28.0414 36.9428 28.0414H37.5028V28.8014H36.7828C36.3721 28.8014 36.0574 28.7054 35.8388 28.5134C35.6201 28.3214 35.5108 28.0094 35.5108 27.5774V25.1374H34.9908V24.3934H35.5108V23.2974H36.4308V24.3934H37.5028V25.1374H36.4308ZM39.9433 28.8734C39.5967 28.8734 39.2847 28.8121 39.0073 28.6894C38.7353 28.5614 38.5193 28.3907 38.3593 28.1774C38.1993 27.9587 38.114 27.7161 38.1033 27.4494H39.0473C39.0633 27.6361 39.1513 27.7934 39.3113 27.9214C39.4767 28.0441 39.682 28.1054 39.9273 28.1054C40.1833 28.1054 40.3807 28.0574 40.5193 27.9614C40.6633 27.8601 40.7353 27.7321 40.7353 27.5774C40.7353 27.4121 40.6553 27.2894 40.4953 27.2094C40.3407 27.1294 40.0927 27.0414 39.7513 26.9454C39.4207 26.8547 39.1513 26.7667 38.9433 26.6814C38.7353 26.5961 38.554 26.4654 38.3993 26.2894C38.25 26.1134 38.1753 25.8814 38.1753 25.5934C38.1753 25.3587 38.2447 25.1454 38.3833 24.9534C38.522 24.7561 38.7193 24.6014 38.9753 24.4894C39.2367 24.3774 39.5353 24.3214 39.8713 24.3214C40.3727 24.3214 40.7753 24.4494 41.0793 24.7054C41.3887 24.9561 41.554 25.3001 41.5753 25.7374H40.6633C40.6473 25.5401 40.5673 25.3827 40.4233 25.2654C40.2793 25.1481 40.0847 25.0894 39.8393 25.0894C39.5993 25.0894 39.4153 25.1347 39.2873 25.2254C39.1593 25.3161 39.0953 25.4361 39.0953 25.5854C39.0953 25.7027 39.138 25.8014 39.2233 25.8814C39.3087 25.9614 39.4127 26.0254 39.5353 26.0734C39.658 26.1161 39.8393 26.1721 40.0793 26.2414C40.3993 26.3267 40.6607 26.4147 40.8633 26.5054C41.0713 26.5907 41.25 26.7187 41.3993 26.8894C41.5487 27.0601 41.626 27.2867 41.6313 27.5694C41.6313 27.8201 41.562 28.0441 41.4233 28.2414C41.2847 28.4387 41.0873 28.5934 40.8313 28.7054C40.5807 28.8174 40.2847 28.8734 39.9433 28.8734Z" fill="#7C8A98"/>
</svg>
