<svg width="16" height="15" viewBox="0 0 67 48" fill="none" xmlns="http://www.w3.org/2000/svg">
    <rect width="67" height="48" rx="24" fill="#FAE4D6"/>
    <path d="M25.505 37.056C25.1317 37.056 24.7957 36.992 24.497 36.864C24.1984 36.7307 23.9637 36.544 23.793 36.304C23.6224 36.064 23.537 35.784 23.537 35.464H24.513C24.5344 35.704 24.6277 35.9013 24.793 36.056C24.9637 36.2107 25.201 36.288 25.505 36.288C25.8197 36.288 26.065 36.2133 26.241 36.064C26.417 35.9093 26.505 35.712 26.505 35.472C26.505 35.2853 26.449 35.1333 26.337 35.016C26.2304 34.8987 26.0944 34.808 25.929 34.744C25.769 34.68 25.545 34.6107 25.257 34.536C24.8944 34.44 24.5984 34.344 24.369 34.248C24.145 34.1467 23.953 33.992 23.793 33.784C23.633 33.576 23.553 33.2987 23.553 32.952C23.553 32.632 23.633 32.352 23.793 32.112C23.953 31.872 24.177 31.688 24.465 31.56C24.753 31.432 25.0864 31.368 25.465 31.368C26.0037 31.368 26.4437 31.504 26.785 31.776C27.1317 32.0427 27.3237 32.4107 27.361 32.88H26.353C26.337 32.6773 26.241 32.504 26.065 32.36C25.889 32.216 25.657 32.144 25.369 32.144C25.1077 32.144 24.8944 32.2107 24.729 32.344C24.5637 32.4773 24.481 32.6693 24.481 32.92C24.481 33.0907 24.5317 33.232 24.633 33.344C24.7397 33.4507 24.873 33.536 25.033 33.6C25.193 33.664 25.4117 33.7333 25.689 33.808C26.057 33.9093 26.3557 34.0107 26.585 34.112C26.8197 34.2133 27.017 34.3707 27.177 34.584C27.3424 34.792 27.425 35.072 27.425 35.424C27.425 35.7067 27.3477 35.9733 27.193 36.224C27.0437 36.4747 26.8224 36.6773 26.529 36.832C26.241 36.9813 25.8997 37.056 25.505 37.056ZM29.4132 31.08V37H28.5012V31.08H29.4132ZM34.6505 34.688C34.6505 34.8533 34.6399 35.0027 34.6185 35.136H31.2505C31.2772 35.488 31.4079 35.7707 31.6425 35.984C31.8772 36.1973 32.1652 36.304 32.5065 36.304C32.9972 36.304 33.3439 36.0987 33.5465 35.688H34.5305C34.3972 36.0933 34.1545 36.4267 33.8025 36.688C33.4559 36.944 33.0239 37.072 32.5065 37.072C32.0852 37.072 31.7065 36.9787 31.3705 36.792C31.0399 36.6 30.7785 36.3333 30.5865 35.992C30.3999 35.6453 30.3065 35.2453 30.3065 34.792C30.3065 34.3387 30.3972 33.9413 30.5785 33.6C30.7652 33.2533 31.0239 32.9867 31.3545 32.8C31.6905 32.6133 32.0745 32.52 32.5065 32.52C32.9225 32.52 33.2932 32.6107 33.6185 32.792C33.9439 32.9733 34.1972 33.2293 34.3785 33.56C34.5599 33.8853 34.6505 34.2613 34.6505 34.688ZM33.6985 34.4C33.6932 34.064 33.5732 33.7947 33.3385 33.592C33.1039 33.3893 32.8132 33.288 32.4665 33.288C32.1519 33.288 31.8825 33.3893 31.6585 33.592C31.4345 33.7893 31.3012 34.0587 31.2585 34.4H33.6985ZM39.588 34.688C39.588 34.8533 39.5774 35.0027 39.556 35.136H36.188C36.2147 35.488 36.3454 35.7707 36.58 35.984C36.8147 36.1973 37.1027 36.304 37.444 36.304C37.9347 36.304 38.2814 36.0987 38.484 35.688H39.468C39.3347 36.0933 39.092 36.4267 38.74 36.688C38.3934 36.944 37.9614 37.072 37.444 37.072C37.0227 37.072 36.644 36.9787 36.308 36.792C35.9774 36.6 35.716 36.3333 35.524 35.992C35.3374 35.6453 35.244 35.2453 35.244 34.792C35.244 34.3387 35.3347 33.9413 35.516 33.6C35.7027 33.2533 35.9614 32.9867 36.292 32.8C36.628 32.6133 37.012 32.52 37.444 32.52C37.86 32.52 38.2307 32.6107 38.556 32.792C38.8814 32.9733 39.1347 33.2293 39.316 33.56C39.4974 33.8853 39.588 34.2613 39.588 34.688ZM38.636 34.4C38.6307 34.064 38.5107 33.7947 38.276 33.592C38.0414 33.3893 37.7507 33.288 37.404 33.288C37.0894 33.288 36.82 33.3893 36.596 33.592C36.372 33.7893 36.2387 34.0587 36.196 34.4H38.636ZM41.3975 33.24C41.5522 33.0373 41.7629 32.8667 42.0295 32.728C42.2962 32.5893 42.5975 32.52 42.9335 32.52C43.3175 32.52 43.6669 32.616 43.9815 32.808C44.3015 32.9947 44.5522 33.2587 44.7335 33.6C44.9149 33.9413 45.0055 34.3333 45.0055 34.776C45.0055 35.2187 44.9149 35.616 44.7335 35.968C44.5522 36.3147 44.3015 36.5867 43.9815 36.784C43.6669 36.976 43.3175 37.072 42.9335 37.072C42.5975 37.072 42.2989 37.0053 42.0375 36.872C41.7762 36.7333 41.5629 36.5627 41.3975 36.36V39.096H40.4855V32.592H41.3975V33.24ZM44.0775 34.776C44.0775 34.472 44.0135 34.2107 43.8855 33.992C43.7629 33.768 43.5975 33.6 43.3895 33.488C43.1869 33.3707 42.9682 33.312 42.7335 33.312C42.5042 33.312 42.2855 33.3707 42.0775 33.488C41.8749 33.6053 41.7095 33.776 41.5815 34C41.4589 34.224 41.3975 34.488 41.3975 34.792C41.3975 35.096 41.4589 35.3627 41.5815 35.592C41.7095 35.816 41.8749 35.9867 42.0775 36.104C42.2855 36.2213 42.5042 36.28 42.7335 36.28C42.9682 36.28 43.1869 36.2213 43.3895 36.104C43.5975 35.9813 43.7629 35.8053 43.8855 35.576C44.0135 35.3467 44.0775 35.08 44.0775 34.776Z" fill="#F65123"/>
    <path d="M38.405 20.2003C36.8429 20.0072 35.3979 19.3138 34.3109 18.2356C33.2239 17.1575 32.5606 15.7597 32.4315 14.2753C32.3043 12.7789 32.7351 11.2877 33.6492 10.0603C33.6528 10.0536 33.6545 10.0462 33.654 10.0387C33.6535 10.0312 33.6509 10.024 33.6464 10.0179C33.642 10.0117 33.6358 10.0068 33.6286 10.0037C33.6214 10.0006 33.6134 9.99942 33.6056 10.0003C32.3253 10.3092 31.1514 10.9263 30.1982 11.7913C29.2449 12.6563 28.5446 13.7398 28.1656 14.9365C27.7865 16.1332 27.7415 17.4023 28.035 18.6203C28.3284 19.8383 28.9503 20.9637 29.8402 21.8871C30.7301 22.8106 31.8576 23.5005 33.1131 23.8899C34.3686 24.2792 35.7093 24.3547 37.0048 24.109C38.3003 23.8633 39.5065 23.3047 40.506 22.4877C41.5055 21.6707 42.2644 20.623 42.7087 19.4465C42.711 19.4395 42.7112 19.4319 42.7091 19.4248C42.7069 19.4177 42.7026 19.4114 42.6967 19.4066C42.6908 19.4018 42.6835 19.3987 42.6757 19.3978C42.668 19.3969 42.6601 19.3982 42.6531 19.4015C41.3661 20.0962 39.8752 20.3765 38.405 20.2003Z" stroke="#F65123" stroke-width="1.125"/>
</svg>
