<svg width="17" height="16" viewBox="0 0 17 16" fill="none" xmlns="http://www.w3.org/2000/svg">
    <path d="M11.5596 11.2003C9.99741 11.0072 8.55243 10.3138 7.46544 9.23565C6.37846 8.15749 5.71514 6.75971 5.58603 5.27526C5.45886 3.77893 5.88967 2.28772 6.80375 1.06026C6.80739 1.05362 6.80906 1.04617 6.80857 1.03871C6.80809 1.03124 6.80546 1.02404 6.80098 1.01788C6.7965 1.01172 6.79033 1.00682 6.78313 1.00372C6.77593 1.00062 6.76797 0.99942 6.76011 1.00026C5.47986 1.30925 4.30599 1.92626 3.35271 2.79127C2.39943 3.65628 1.69919 4.73983 1.32012 5.93652C0.941051 7.1332 0.896056 8.40228 1.18951 9.62028C1.48297 10.8383 2.10488 11.9637 2.99476 12.8872C3.88463 13.8106 5.01216 14.5005 6.26766 14.8899C7.52316 15.2792 8.86387 15.3547 10.1594 15.109C11.4549 14.8633 12.6611 14.3047 13.6606 13.4877C14.6601 12.6707 15.4189 11.623 15.8632 10.4465C15.8656 10.4395 15.8657 10.4319 15.8636 10.4248C15.8615 10.4177 15.8572 10.4114 15.8513 10.4066C15.8453 10.4018 15.838 10.3987 15.8303 10.3978C15.8225 10.3969 15.8147 10.3982 15.8077 10.4015C14.5207 11.0962 13.0297 11.3765 11.5596 11.2003Z" stroke="#FCFCFC" stroke-width="1.125"/>
</svg>
